<svg version="1.1" id="Layer_1" xmlns="http://www.w3.org/2000/svg" xmlns:xlink="http://www.w3.org/1999/xlink" x="0px" y="0px"
	 width="100%" viewBox="0 0 100 100" enable-background="new 0 0 100 100" xml:space="preserve">
<path fill="#222222" opacity="1.000000" stroke="none" 
	d="
M49.170254,6.022306 
	C73.046906,6.113692 91.906944,21.965311 95.077232,44.206524 
	C98.321571,66.967278 85.035896,88.162766 63.066608,94.192047 
	C45.043400,99.138351 29.177027,94.487305 16.993925,80.336250 
	C4.830401,66.207939 2.823735,49.972595 9.913722,32.689987 
	C10.207910,31.972872 10.730358,31.349401 12.416399,30.901531 
	C12.275106,32.615829 12.353055,34.382729 11.956435,36.035763 
	C9.629808,45.732689 10.070586,55.202976 14.049164,64.411057 
	C20.905077,80.278488 38.053059,90.022690 54.961239,87.695274 
	C72.827682,85.235954 85.246078,72.478531 87.477516,54.291290 
	C90.536568,29.358604 64.640755,7.805181 40.742096,15.392785 
	C28.982256,19.126429 20.869686,34.018612 23.289555,47.430286 
	C25.741795,61.021370 36.801445,70.403877 49.838562,69.773361 
	C57.538666,69.400955 63.732040,66.306160 66.965866,58.906933 
	C69.817375,52.382477 68.914482,46.121403 64.517097,40.598175 
	C59.552311,34.362293 52.931206,33.418808 45.273350,35.372620 
	C45.273350,45.652096 45.273350,55.879112 45.273350,66.143616 
	C36.947231,64.906784 34.869495,62.830238 34.551907,55.293922 
	C34.208168,47.137024 33.927620,38.974403 33.855862,30.812199 
	C33.844231,29.489595 34.710312,27.467567 35.761589,26.934786 
	C45.793861,21.850479 56.043324,20.065960 66.032745,26.902393 
	C76.183876,33.849499 80.727524,43.702492 78.674461,55.832466 
	C76.693703,67.535248 69.514664,75.326660 58.022251,78.484711 
	C38.516113,83.844887 16.993805,67.385895 15.018862,45.863155 
	C13.092668,24.871677 27.326895,8.045689 49.170254,6.022306 
z"/>
</svg>