<svg xmlns="http://www.w3.org/2000/svg" xmlns:xlink="http://www.w3.org/1999/xlink" width="1024" zoomAndPan="magnify" viewBox="0 0 768 767.999994" height="1024" preserveAspectRatio="xMidYMid meet" version="1.0"><defs><clipPath id="722d5ac5ca"><path d="M 12 0 L 756 0 L 756 768 L 12 768 Z M 12 0 " clip-rule="nonzero"/></clipPath><clipPath id="8f1de75f31"><path d="M 755.339844 641.203125 C 755.339844 711.117188 698.667969 767.796875 628.75 767.796875 L 139.25 767.796875 C 69.335938 767.796875 12.65625 711.121094 12.65625 641.203125 L 12.65625 126.796875 C 12.65625 56.882812 69.332031 0.203125 139.25 0.203125 L 628.75 0.203125 C 698.667969 0.203125 755.34375 56.882812 755.34375 126.796875 L 755.34375 641.203125 Z M 755.339844 641.203125 " clip-rule="nonzero"/></clipPath><clipPath id="3b81207057"><path d="M 23.832031 23.832031 L 744.167969 23.832031 L 744.167969 744.167969 L 23.832031 744.167969 Z M 23.832031 23.832031 " clip-rule="nonzero"/></clipPath><clipPath id="5656c309ed"><path d="M 384 23.832031 C 185.085938 23.832031 23.832031 185.085938 23.832031 384 C 23.832031 582.914062 185.085938 744.167969 384 744.167969 C 582.914062 744.167969 744.167969 582.914062 744.167969 384 C 744.167969 185.085938 582.914062 23.832031 384 23.832031 " clip-rule="nonzero"/></clipPath></defs><g clip-path="url(#722d5ac5ca)"><g clip-path="url(#8f1de75f31)"><path fill="#e8e0d6" d="M 11.914062 -0.539062 L 756.085938 -0.539062 L 756.085938 768.882812 L 11.914062 768.882812 Z M 11.914062 -0.539062 " fill-opacity="1" fill-rule="nonzero"/></g></g><g clip-path="url(#3b81207057)"><g clip-path="url(#5656c309ed)"><path fill="#222222" d="M 23.832031 23.832031 L 744.167969 23.832031 L 744.167969 744.167969 L 23.832031 744.167969 Z M 23.832031 23.832031 " fill-opacity="1" fill-rule="nonzero"/></g></g><path fill="#e8e0d6" d="M 485.785156 197.117188 C 465.761719 211.394531 454.660156 236.574219 446.929688 259.175781 C 443.757812 268.296875 450.300781 279.796875 460.410156 279.996094 C 476.863281 280.394531 493.316406 280.589844 509.570312 280.789062 C 524.242188 281.1875 543.867188 284.160156 557.148438 277.21875 C 565.078125 273.058594 565.277344 262.945312 558.535156 257.589844 C 546.246094 248.074219 525.035156 248.667969 510.167969 248.074219 C 492.917969 247.480469 475.671875 247.675781 458.625 249.066406 C 464.570312 255.808594 470.519531 262.746094 476.269531 269.488281 C 481.621094 247.480469 492.722656 227.851562 499.261719 206.238281 C 502.039062 197.710938 492.523438 192.359375 485.785156 197.117188 Z M 485.785156 197.117188 " fill-opacity="1" fill-rule="nonzero"/><path fill="#e8e0d6" d="M 107.546875 418.789062 C 125.390625 460.425781 161.46875 489.96875 200.324219 511.382812 C 243.539062 535.175781 291.113281 551.039062 339.882812 558.175781 C 434.441406 571.859375 534.152344 546.675781 601.949219 477.28125 C 635.453125 442.980469 661.816406 397.96875 664 349.195312 C 664.59375 336.902344 647.148438 332.9375 642.785156 344.832031 C 629.703125 380.324219 611.863281 413.632812 585.894531 441.589844 C 560.121094 469.152344 529 490.167969 493.910156 504.246094 C 410.652344 537.753906 311.929688 526.453125 231.246094 491.160156 C 189.023438 472.324219 152.347656 443.96875 121.621094 409.46875 C 114.882812 402.132812 103.78125 410.066406 107.546875 418.789062 Z M 107.546875 418.789062 " fill-opacity="1" fill-rule="nonzero"/><path fill="#e8e0d6" d="M 243.339844 219.917969 C 231.84375 245.496094 230.058594 279.003906 238.78125 305.773438 C 242.546875 317.074219 262.171875 319.058594 261.972656 304.382812 C 261.972656 290.308594 260.386719 276.230469 259.59375 262.152344 C 258.800781 248.273438 258.605469 234.589844 257.019531 220.910156 C 256.226562 213.375 245.917969 214.167969 243.339844 219.917969 Z M 243.339844 219.917969 " fill-opacity="1" fill-rule="nonzero"/></svg>